<?xml version="1.0" encoding="utf-8"?>
<!-- Generator: Adobe Illustrator 27.4.1, SVG Export Plug-In . SVG Version: 6.00 Build 0)  -->
<svg version="1.1" id="Layer_1" xmlns="http://www.w3.org/2000/svg" xmlns:xlink="http://www.w3.org/1999/xlink" x="0px" y="0px"
	 viewBox="0 0 15 15" style="enable-background:new 0 0 15 15;" xml:space="preserve">
<style type="text/css">
	.st0{fill:#8CFCA7;}
	.st1{fill:#00C630;}
	.st2{fill:#FECE0D;}
	.st3{fill:#BC9700;}
	.st4{fill:#14D042;}
	.st5{fill:#009A27;}
	.st6{fill:#B6B7B7;}
	.st7{fill:#7A7B7B;}
	.st8{fill:#F91D1D;}
	.st9{fill:#980C0C;}
	.st10{fill:#FF9393;}
	.st11{fill:#E71616;}
	.st12{fill:#FFEF82;}
	.st13{fill:#DBAE00;}
</style>
<g>
	<path class="st0" d="M7.4,1C3.81,1,0.9,3.91,0.9,7.5h6.5V1z"/>
	<path class="st1" d="M0.9,7.5c0,3.59,2.91,6.5,6.5,6.5V7.5H0.9z"/>
	<path class="st4" d="M7.4,1v6.5h6.5C13.9,3.91,10.99,1,7.4,1z"/>
	<path class="st5" d="M7.4,14c3.59,0,6.5-2.91,6.5-6.5H7.4V14z"/>
</g>
<g>
	<path d="M7.5,1.43c3.35,0,6.07,2.72,6.07,6.07s-2.72,6.07-6.07,6.07S1.43,10.85,1.43,7.5S4.15,1.43,7.5,1.43 M7.5,0.5
		c-3.87,0-7,3.13-7,7c0,3.87,3.13,7,7,7s7-3.13,7-7C14.5,3.63,11.37,0.5,7.5,0.5L7.5,0.5z"/>
</g>
</svg>
